<svg width="180" height="180" viewBox="0 0 180 180" fill="none" xmlns="http://www.w3.org/2000/svg">
<circle cx="90" cy="90" r="80" fill="white"/>
<circle cx="90" cy="90" r="85" stroke="black" stroke-opacity="0.1" stroke-width="10"/>
<path d="M101.044 56.1625C99.911 52.6673 96.1649 50.7514 92.6744 51.8873C89.1841 53.0219 87.2777 56.7792 88.4108 60.2787L105.583 113.264C106.763 116.53 110.281 118.367 113.664 117.395C117.187 116.376 119.34 112.623 118.212 109.152C118.17 109.016 101.044 56.1625 101.044 56.1625Z" fill="#FFC107"/>
<path d="M74.4346 64.8351C73.2961 61.335 69.5499 59.4187 66.0646 60.5592C62.5782 61.6997 60.6636 65.4517 61.8002 68.9512L78.9735 121.932C80.1527 125.199 83.671 127.035 87.0542 126.063C90.5772 125.044 92.7305 121.292 91.6025 117.82C91.56 117.689 74.4346 64.8351 74.4346 64.8351Z" fill="#5ACF5F"/>
<path d="M122.662 100.045C126.152 98.9092 128.059 95.1522 126.927 91.652C125.794 88.1519 122.048 86.2415 118.557 87.3762L65.7152 104.601C62.4572 105.783 60.6264 109.311 61.5953 112.703C62.6113 116.236 66.3539 118.395 69.816 117.264C69.9506 117.217 122.662 100.045 122.662 100.045Z" fill="#F4427E"/>
<path d="M76.727 115.012C80.1656 113.89 84.5983 112.446 89.3561 110.895C88.2377 107.447 86.7978 103.002 85.2503 98.2314L72.6211 102.348L76.727 115.012Z" fill="#6B3F6E"/>
<path d="M103.341 106.339C108.118 104.783 112.554 103.339 115.971 102.222C114.852 98.7736 113.412 94.3247 111.865 89.5545L99.2359 93.6712L103.341 106.339Z" fill="#E0232B"/>
<path d="M114.013 73.3626C117.504 72.2267 119.41 68.4701 118.278 64.9708C117.145 61.4703 113.398 59.5597 109.908 60.6948L57.0703 77.914C53.8081 79.0961 51.977 82.6242 52.9505 86.0167C53.9664 89.5501 57.7089 91.7031 61.1711 90.5775C61.3016 90.5353 114.013 73.3626 114.013 73.3626Z" fill="#2299F8"/>
<path d="M68.0772 88.3255C71.5166 87.2041 75.9534 85.7605 80.7117 84.2084C79.1592 79.4234 77.7195 74.9745 76.6055 71.5458L63.9763 75.6617L68.0772 88.3255Z" fill="#20B89C"/>
<path d="M94.6917 79.6573C99.4686 78.1008 103.905 76.657 107.326 75.5408C105.773 70.7498 104.329 66.3022 103.22 62.872L90.5859 66.9889L94.6917 79.6573Z" fill="#81AB4A"/>
</svg>
